<svg data-v-fde0c5aa="" xmlns="http://www.w3.org/2000/svg" viewBox="0 0 300 300" class="font"><!----><defs data-v-fde0c5aa=""><!----></defs><rect data-v-fde0c5aa="" fill="transparent" x="0" y="0" width="300px" height="300px" class="logo-background-square"></rect><defs data-v-fde0c5aa=""><linearGradient data-v-fde0c5aa="" gradientTransform="rotate(25)" id="456b3704-0bfa-4f34-b14d-788cf30f78ba" x1="0%" y1="0%" x2="100%" y2="0%"><stop data-v-fde0c5aa="" offset="0%" stop-color="#01648B" stop-opacity="1"></stop><stop data-v-fde0c5aa="" offset="100%" stop-color="#5BD0A4" stop-opacity="1"></stop></linearGradient></defs><g data-v-fde0c5aa="" id="f8c9ce12-6ba8-428d-8755-c92c1fd54a87" fill="url(#456b3704-0bfa-4f34-b14d-788cf30f78ba)" transform="matrix(2.4104304777202796,0,0,2.4104304777202796,37.78240392026896,130.25857424954498)"><path d="M4.63 13.23L4.63 13.23Q1.04 13.23 0.94 9.37L0.94 9.37L0.94 9.37Q0.92 8.95 0.92 8.19L0.92 8.19L0.92 8.19Q0.92 7.43 0.94 7.01L0.94 7.01L0.94 7.01Q0.99 5.11 1.97 4.13L1.97 4.13L1.97 4.13Q2.95 3.15 4.63 3.15L4.63 3.15L4.63 3.15Q6.31 3.15 7.29 4.13L7.29 4.13L7.29 4.13Q8.27 5.11 8.33 7.01L8.33 7.01L8.33 7.01Q8.36 7.85 8.36 8.19L8.36 8.19L8.36 8.19Q8.36 8.53 8.33 9.37L8.33 9.37L8.33 9.37Q8.23 13.23 4.63 13.23L4.63 13.23ZM4.63 12.39L4.63 12.39Q5.89 12.39 6.64 11.63L6.64 11.63L6.64 11.63Q7.39 10.86 7.45 9.30L7.45 9.30L7.45 9.30Q7.48 8.46 7.48 8.19L7.48 8.19L7.48 8.19Q7.48 7.92 7.45 7.08L7.45 7.08L7.45 7.08Q7.39 5.52 6.64 4.75L6.64 4.75L6.64 4.75Q5.88 3.99 4.63 3.99L4.63 3.99L4.63 3.99Q3.39 3.99 2.63 4.75L2.63 4.75L2.63 4.75Q1.88 5.52 1.82 7.08L1.82 7.08L1.82 7.08Q1.81 7.50 1.81 8.19L1.81 8.19L1.81 8.19Q1.81 8.88 1.82 9.30L1.82 9.30L1.82 9.30Q1.88 10.86 2.63 11.63L2.63 11.63L2.63 11.63Q3.37 12.39 4.63 12.39L4.63 12.39ZM13.17 13.23L13.17 13.23Q11.72 13.23 10.91 12.34L10.91 12.34L10.91 12.34Q10.11 11.45 10.07 10.04L10.07 10.04L10.05 9.45L10.07 8.86L10.07 8.86Q10.11 7.45 10.91 6.56L10.91 6.56L10.91 6.56Q11.72 5.67 13.17 5.67L13.17 5.67L13.17 5.67Q14.63 5.67 15.44 6.56L15.44 6.56L15.44 6.56Q16.24 7.45 16.28 8.86L16.28 8.86L16.28 8.86Q16.30 9.00 16.30 9.45L16.30 9.45L16.30 9.45Q16.30 9.90 16.28 10.04L16.28 10.04L16.28 10.04Q16.24 11.45 15.44 12.34L15.44 12.34L15.44 12.34Q14.63 13.23 13.17 13.23L13.17 13.23ZM13.17 12.42L13.17 12.42Q14.17 12.42 14.78 11.78L14.78 11.78L14.78 11.78Q15.39 11.14 15.43 9.97L15.43 9.97L15.43 9.97Q15.44 9.83 15.44 9.45L15.44 9.45L15.44 9.45Q15.44 9.07 15.43 8.93L15.43 8.93L15.43 8.93Q15.39 7.76 14.78 7.12L14.78 7.12L14.78 7.12Q14.17 6.48 13.17 6.48L13.17 6.48L13.17 6.48Q12.18 6.48 11.57 7.12L11.57 7.12L11.57 7.12Q10.96 7.76 10.92 8.93L10.92 8.93L10.91 9.45L10.92 9.97L10.92 9.97Q10.96 11.14 11.57 11.78L11.57 11.78L11.57 11.78Q12.18 12.42 13.17 12.42L13.17 12.42ZM20.92 13.23L20.92 13.23Q19.59 13.23 18.77 12.36L18.77 12.36L18.77 12.36Q17.96 11.48 17.85 10.01L17.85 10.01L17.84 9.45L17.85 8.89L17.85 8.89Q17.96 7.43 18.77 6.55L18.77 6.55L18.77 6.55Q19.57 5.67 20.92 5.67L20.92 5.67L20.92 5.67Q22.37 5.67 23.19 6.64L23.19 6.64L23.19 6.64Q24.01 7.60 24.01 9.28L24.01 9.28L24.01 9.49L24.01 9.49Q24.01 9.63 23.92 9.72L23.92 9.72L23.92 9.72Q23.83 9.80 23.69 9.80L23.69 9.80L18.70 9.80L18.70 9.94L18.70 9.94Q18.73 10.60 19.01 11.16L19.01 11.16L19.01 11.16Q19.28 11.73 19.77 12.07L19.77 12.07L19.77 12.07Q20.26 12.42 20.92 12.42L20.92 12.42L20.92 12.42Q21.69 12.42 22.17 12.12L22.17 12.12L22.17 12.12Q22.65 11.82 22.86 11.51L22.86 11.51L22.86 11.51Q22.99 11.34 23.05 11.30L23.05 11.30L23.05 11.30Q23.11 11.26 23.28 11.26L23.28 11.26L23.51 11.26L23.51 11.26Q23.63 11.26 23.72 11.33L23.72 11.33L23.72 11.33Q23.80 11.40 23.80 11.51L23.80 11.51L23.80 11.51Q23.80 11.80 23.43 12.21L23.43 12.21L23.43 12.21Q23.06 12.63 22.40 12.93L22.40 12.93L22.40 12.93Q21.74 13.23 20.92 13.23L20.92 13.23ZM18.70 9.02L23.16 9.02L23.16 8.96L23.16 8.96Q23.16 7.88 22.55 7.18L22.55 7.18L22.55 7.18Q21.94 6.48 20.92 6.48L20.92 6.48L20.92 6.48Q19.89 6.48 19.30 7.18L19.30 7.18L19.30 7.18Q18.70 7.88 18.70 8.96L18.70 8.96L18.70 9.02ZM26.17 13.09L26.17 13.09Q26.03 13.09 25.94 13.01L25.94 13.01L25.94 13.01Q25.86 12.92 25.86 12.78L25.86 12.78L25.86 6.12L25.86 6.12Q25.86 5.98 25.94 5.89L25.94 5.89L25.94 5.89Q26.03 5.81 26.17 5.81L26.17 5.81L26.40 5.81L26.40 5.81Q26.54 5.81 26.63 5.89L26.63 5.89L26.63 5.89Q26.71 5.98 26.71 6.12L26.71 6.12L26.71 6.78L26.71 6.78Q27.13 6.23 27.67 5.95L27.67 5.95L27.67 5.95Q28.21 5.67 29.06 5.67L29.06 5.67L29.06 5.67Q30.44 5.67 31.18 6.54L31.18 6.54L31.18 6.54Q31.92 7.42 31.92 8.81L31.92 8.81L31.92 12.78L31.92 12.78Q31.92 12.92 31.84 13.01L31.84 13.01L31.84 13.01Q31.75 13.09 31.61 13.09L31.61 13.09L31.37 13.09L31.37 13.09Q31.23 13.09 31.15 13.01L31.15 13.01L31.15 13.01Q31.07 12.92 31.07 12.78L31.07 12.78L31.07 8.88L31.07 8.88Q31.07 7.74 30.51 7.11L30.51 7.11L30.51 7.11Q29.96 6.48 28.92 6.48L28.92 6.48L28.92 6.48Q27.92 6.48 27.31 7.12L27.31 7.12L27.31 7.12Q26.71 7.76 26.71 8.88L26.71 8.88L26.71 12.78L26.71 12.78Q26.71 12.92 26.63 13.01L26.63 13.01L26.63 13.01Q26.54 13.09 26.40 13.09L26.40 13.09L26.17 13.09ZM37.62 13.23L37.62 13.23Q35.80 13.23 34.89 12.20L34.89 12.20L34.89 12.20Q33.98 11.17 33.91 9.44L33.91 9.44L33.91 9.44Q33.89 9.06 33.89 8.20L33.89 8.20L33.89 8.20Q33.89 7.34 33.91 6.94L33.91 6.94L33.91 6.94Q33.98 5.21 34.89 4.18L34.89 4.18L34.89 4.18Q35.80 3.15 37.62 3.15L37.62 3.15L37.62 3.15Q38.86 3.15 39.69 3.61L39.69 3.61L39.69 3.61Q40.52 4.06 40.91 4.75L40.91 4.75L40.91 4.75Q41.31 5.45 41.36 6.17L41.36 6.17L41.36 6.20L41.36 6.20Q41.36 6.31 41.27 6.38L41.27 6.38L41.27 6.38Q41.19 6.45 41.06 6.45L41.06 6.45L40.78 6.45L40.78 6.45Q40.53 6.45 40.47 6.16L40.47 6.16L40.47 6.16Q40.21 4.97 39.51 4.48L39.51 4.48L39.51 4.48Q38.81 3.99 37.62 3.99L37.62 3.99L37.62 3.99Q36.30 3.99 35.57 4.73L35.57 4.73L35.57 4.73Q34.85 5.47 34.79 7.01L34.79 7.01L34.79 7.01Q34.78 7.39 34.78 8.18L34.78 8.18L34.78 8.18Q34.78 8.96 34.79 9.37L34.79 9.37L34.79 9.37Q34.85 10.91 35.57 11.65L35.57 11.65L35.57 11.65Q36.30 12.39 37.62 12.39L37.62 12.39L37.62 12.39Q38.81 12.39 39.51 11.90L39.51 11.90L39.51 11.90Q40.21 11.41 40.47 10.22L40.47 10.22L40.47 10.22Q40.53 9.93 40.78 9.93L40.78 9.93L41.06 9.93L41.06 9.93Q41.19 9.93 41.28 10.00L41.28 10.00L41.28 10.00Q41.37 10.08 41.36 10.21L41.36 10.21L41.36 10.21Q41.31 10.93 40.91 11.63L40.91 11.63L40.91 11.63Q40.52 12.32 39.69 12.78L39.69 12.78L39.69 12.78Q38.86 13.23 37.62 13.23L37.62 13.23ZM46.00 13.23L46.00 13.23Q44.55 13.23 43.74 12.34L43.74 12.34L43.74 12.34Q42.94 11.45 42.90 10.04L42.90 10.04L42.88 9.45L42.90 8.86L42.90 8.86Q42.94 7.45 43.74 6.56L43.74 6.56L43.74 6.56Q44.55 5.67 46.00 5.67L46.00 5.67L46.00 5.67Q47.46 5.67 48.27 6.56L48.27 6.56L48.27 6.56Q49.07 7.45 49.11 8.86L49.11 8.86L49.11 8.86Q49.13 9.00 49.13 9.45L49.13 9.45L49.13 9.45Q49.13 9.90 49.11 10.04L49.11 10.04L49.11 10.04Q49.07 11.45 48.27 12.34L48.27 12.34L48.27 12.34Q47.46 13.23 46.00 13.23L46.00 13.23ZM46.00 12.42L46.00 12.42Q47.00 12.42 47.61 11.78L47.61 11.78L47.61 11.78Q48.22 11.14 48.26 9.97L48.26 9.97L48.26 9.97Q48.27 9.83 48.27 9.45L48.27 9.45L48.27 9.45Q48.27 9.07 48.26 8.93L48.26 8.93L48.26 8.93Q48.22 7.76 47.61 7.12L47.61 7.12L47.61 7.12Q47.00 6.48 46.00 6.48L46.00 6.48L46.00 6.48Q45.01 6.48 44.40 7.12L44.40 7.12L44.40 7.12Q43.79 7.76 43.75 8.93L43.75 8.93L43.74 9.45L43.75 9.97L43.75 9.97Q43.79 11.14 44.40 11.78L44.40 11.78L44.40 11.78Q45.01 12.42 46.00 12.42L46.00 12.42ZM51.37 13.09L51.37 13.09Q51.23 13.09 51.14 13.01L51.14 13.01L51.14 13.01Q51.06 12.92 51.06 12.78L51.06 12.78L51.06 3.46L51.06 3.46Q51.06 3.32 51.14 3.23L51.14 3.23L51.14 3.23Q51.23 3.15 51.37 3.15L51.37 3.15L51.60 3.15L51.60 3.15Q51.74 3.15 51.83 3.23L51.83 3.23L51.83 3.23Q51.91 3.32 51.91 3.46L51.91 3.46L51.91 12.78L51.91 12.78Q51.91 12.92 51.83 13.01L51.83 13.01L51.83 13.01Q51.74 13.09 51.60 13.09L51.60 13.09L51.37 13.09ZM57.32 13.23L57.32 13.23Q56.22 13.23 55.42 12.87L55.42 12.87L55.42 12.87Q54.61 12.52 54.19 11.94L54.19 11.94L54.19 11.94Q53.76 11.37 53.73 10.71L53.73 10.71L53.73 10.71Q53.73 10.60 53.82 10.51L53.82 10.51L53.82 10.51Q53.90 10.43 54.03 10.43L54.03 10.43L54.31 10.43L54.31 10.43Q54.56 10.43 54.61 10.71L54.61 10.71L54.61 10.71Q54.71 11.38 55.38 11.89L55.38 11.89L55.38 11.89Q56.06 12.39 57.32 12.39L57.32 12.39L57.32 12.39Q58.65 12.39 59.30 11.91L59.30 11.91L59.30 11.91Q59.95 11.42 59.95 10.56L59.95 10.56L59.95 10.56Q59.95 10.02 59.63 9.68L59.63 9.68L59.63 9.68Q59.32 9.34 58.72 9.08L58.72 9.08L58.72 9.08Q58.11 8.82 56.90 8.43L56.90 8.43L56.90 8.43Q55.82 8.08 55.21 7.74L55.21 7.74L55.21 7.74Q54.60 7.41 54.31 6.92L54.31 6.92L54.31 6.92Q54.01 6.43 54.01 5.67L54.01 5.67L54.01 5.67Q54.01 4.96 54.40 4.38L54.40 4.38L54.40 4.38Q54.78 3.81 55.51 3.48L55.51 3.48L55.51 3.48Q56.24 3.15 57.25 3.15L57.25 3.15L57.25 3.15Q58.28 3.15 59.02 3.52L59.02 3.52L59.02 3.52Q59.77 3.89 60.14 4.46L60.14 4.46L60.14 4.46Q60.52 5.03 60.55 5.60L60.55 5.60L60.55 5.60Q60.55 5.71 60.47 5.80L60.47 5.80L60.47 5.80Q60.40 5.88 60.26 5.88L60.26 5.88L59.98 5.88L59.98 5.88Q59.88 5.88 59.78 5.82L59.78 5.82L59.78 5.82Q59.68 5.75 59.67 5.60L59.67 5.60L59.67 5.60Q59.58 4.90 58.92 4.45L58.92 4.45L58.92 4.45Q58.25 3.99 57.25 3.99L57.25 3.99L57.25 3.99Q56.17 3.99 55.53 4.41L55.53 4.41L55.53 4.41Q54.89 4.83 54.89 5.67L54.89 5.67L54.89 5.67Q54.89 6.22 55.18 6.57L55.18 6.57L55.18 6.57Q55.47 6.93 56.04 7.19L56.04 7.19L56.04 7.19Q56.62 7.45 57.74 7.81L57.74 7.81L57.74 7.81Q58.88 8.18 59.53 8.51L59.53 8.51L59.53 8.51Q60.17 8.85 60.50 9.32L60.50 9.32L60.50 9.32Q60.83 9.80 60.83 10.56L60.83 10.56L60.83 10.56Q60.83 11.82 59.89 12.52L59.89 12.52L59.89 12.52Q58.95 13.23 57.32 13.23L57.32 13.23ZM65.37 13.23L65.37 13.23Q64.04 13.23 63.22 12.36L63.22 12.36L63.22 12.36Q62.41 11.48 62.30 10.01L62.30 10.01L62.29 9.45L62.30 8.89L62.30 8.89Q62.41 7.43 63.22 6.55L63.22 6.55L63.22 6.55Q64.02 5.67 65.37 5.67L65.37 5.67L65.37 5.67Q66.82 5.67 67.64 6.64L67.64 6.64L67.64 6.64Q68.46 7.60 68.46 9.28L68.46 9.28L68.46 9.49L68.46 9.49Q68.46 9.63 68.37 9.72L68.37 9.72L68.37 9.72Q68.28 9.80 68.14 9.80L68.14 9.80L63.15 9.80L63.15 9.94L63.15 9.94Q63.18 10.60 63.45 11.16L63.45 11.16L63.45 11.16Q63.73 11.73 64.22 12.07L64.22 12.07L64.22 12.07Q64.71 12.42 65.37 12.42L65.37 12.42L65.37 12.42Q66.14 12.42 66.62 12.12L66.62 12.12L66.62 12.12Q67.10 11.82 67.31 11.51L67.31 11.51L67.31 11.51Q67.44 11.34 67.50 11.30L67.50 11.30L67.50 11.30Q67.56 11.26 67.73 11.26L67.73 11.26L67.96 11.26L67.96 11.26Q68.08 11.26 68.17 11.33L68.17 11.33L68.17 11.33Q68.25 11.40 68.25 11.51L68.25 11.51L68.25 11.51Q68.25 11.80 67.88 12.21L67.88 12.21L67.88 12.21Q67.51 12.63 66.85 12.93L66.85 12.93L66.85 12.93Q66.19 13.23 65.37 13.23L65.37 13.23ZM63.15 9.02L67.61 9.02L67.61 8.96L67.61 8.96Q67.61 7.88 67.00 7.18L67.00 7.18L67.00 7.18Q66.39 6.48 65.37 6.48L65.37 6.48L65.37 6.48Q64.34 6.48 63.75 7.18L63.75 7.18L63.75 7.18Q63.15 7.88 63.15 8.96L63.15 8.96L63.15 9.02ZM70.63 13.09L70.63 13.09Q70.49 13.09 70.41 13.01L70.41 13.01L70.41 13.01Q70.32 12.92 70.32 12.78L70.32 12.78L70.32 3.46L70.32 3.46Q70.32 3.32 70.41 3.23L70.41 3.23L70.41 3.23Q70.49 3.15 70.63 3.15L70.63 3.15L70.87 3.15L70.87 3.15Q71.01 3.15 71.09 3.23L71.09 3.23L71.09 3.23Q71.18 3.32 71.18 3.46L71.18 3.46L71.18 12.78L71.18 12.78Q71.18 12.92 71.09 13.01L71.09 13.01L71.09 13.01Q71.01 13.09 70.87 13.09L70.87 13.09L70.63 13.09ZM76.16 13.23L76.16 13.23Q74.83 13.23 74.02 12.36L74.02 12.36L74.02 12.36Q73.21 11.48 73.09 10.01L73.09 10.01L73.08 9.45L73.09 8.89L73.09 8.89Q73.21 7.43 74.01 6.55L74.01 6.55L74.01 6.55Q74.82 5.67 76.16 5.67L76.16 5.67L76.16 5.67Q77.62 5.67 78.44 6.64L78.44 6.64L78.44 6.64Q79.25 7.60 79.25 9.28L79.25 9.28L79.25 9.49L79.25 9.49Q79.25 9.63 79.16 9.72L79.16 9.72L79.16 9.72Q79.07 9.80 78.93 9.80L78.93 9.80L73.95 9.80L73.95 9.94L73.95 9.94Q73.98 10.60 74.25 11.16L74.25 11.16L74.25 11.16Q74.52 11.73 75.01 12.07L75.01 12.07L75.01 12.07Q75.50 12.42 76.16 12.42L76.16 12.42L76.16 12.42Q76.93 12.42 77.41 12.12L77.41 12.12L77.41 12.12Q77.90 11.82 78.11 11.51L78.11 11.51L78.11 11.51Q78.23 11.34 78.30 11.30L78.30 11.30L78.30 11.30Q78.36 11.26 78.53 11.26L78.53 11.26L78.75 11.26L78.75 11.26Q78.88 11.26 78.96 11.33L78.96 11.33L78.96 11.33Q79.04 11.40 79.04 11.51L79.04 11.51L79.04 11.51Q79.04 11.80 78.67 12.21L78.67 12.21L78.67 12.21Q78.30 12.63 77.64 12.93L77.64 12.93L77.64 12.93Q76.99 13.23 76.16 13.23L76.16 13.23ZM73.95 9.02L78.40 9.02L78.40 8.96L78.40 8.96Q78.40 7.88 77.79 7.18L77.79 7.18L77.79 7.18Q77.18 6.48 76.16 6.48L76.16 6.48L76.16 6.48Q75.14 6.48 74.54 7.18L74.54 7.18L74.54 7.18Q73.95 7.88 73.95 8.96L73.95 8.96L73.95 9.02ZM83.86 13.23L83.86 13.23Q82.40 13.23 81.61 12.38L81.61 12.38L81.61 12.38Q80.81 11.54 80.77 10.01L80.77 10.01L80.75 9.45L80.77 8.89L80.77 8.89Q80.81 7.36 81.61 6.52L81.61 6.52L81.61 6.52Q82.40 5.67 83.86 5.67L83.86 5.67L83.86 5.67Q84.78 5.67 85.44 6.00L85.44 6.00L85.44 6.00Q86.09 6.33 86.41 6.84L86.41 6.84L86.41 6.84Q86.73 7.35 86.76 7.90L86.76 7.90L86.76 7.90Q86.77 8.02 86.67 8.11L86.67 8.11L86.67 8.11Q86.58 8.20 86.45 8.20L86.45 8.20L86.25 8.20L86.25 8.20Q86.11 8.20 86.05 8.14L86.05 8.14L86.05 8.14Q85.99 8.08 85.92 7.91L85.92 7.91L85.92 7.91Q85.64 7.14 85.13 6.81L85.13 6.81L85.13 6.81Q84.63 6.48 83.86 6.48L83.86 6.48L83.86 6.48Q82.85 6.48 82.26 7.09L82.26 7.09L82.26 7.09Q81.66 7.70 81.62 8.96L81.62 8.96L81.61 9.45L81.62 9.94L81.62 9.94Q81.66 11.20 82.26 11.81L82.26 11.81L82.26 11.81Q82.85 12.42 83.86 12.42L83.86 12.42L83.86 12.42Q84.63 12.42 85.13 12.09L85.13 12.09L85.13 12.09Q85.64 11.76 85.92 10.99L85.92 10.99L85.92 10.99Q85.99 10.82 86.05 10.76L86.05 10.76L86.05 10.76Q86.11 10.70 86.25 10.70L86.25 10.70L86.45 10.70L86.45 10.70Q86.58 10.70 86.67 10.79L86.67 10.79L86.67 10.79Q86.77 10.88 86.76 11.00L86.76 11.00L86.76 11.00Q86.73 11.55 86.41 12.06L86.41 12.06L86.41 12.06Q86.09 12.57 85.44 12.90L85.44 12.90L85.44 12.90Q84.78 13.23 83.86 13.23L83.86 13.23ZM91.06 13.09L91.06 13.09Q90.02 13.09 89.59 12.47L89.59 12.47L89.59 12.47Q89.15 11.84 89.15 10.75L89.15 10.75L89.15 6.62L88.06 6.62L88.06 6.62Q87.92 6.62 87.84 6.54L87.84 6.54L87.84 6.54Q87.75 6.45 87.75 6.31L87.75 6.31L87.75 6.12L87.75 6.12Q87.75 5.98 87.84 5.89L87.84 5.89L87.84 5.89Q87.92 5.81 88.06 5.81L88.06 5.81L89.15 5.81L89.15 3.46L89.15 3.46Q89.15 3.32 89.24 3.23L89.24 3.23L89.24 3.23Q89.32 3.15 89.46 3.15L89.46 3.15L89.70 3.15L89.70 3.15Q89.84 3.15 89.92 3.23L89.92 3.23L89.92 3.23Q90.01 3.32 90.01 3.46L90.01 3.46L90.01 5.81L91.74 5.81L91.74 5.81Q91.88 5.81 91.97 5.89L91.97 5.89L91.97 5.89Q92.05 5.98 92.05 6.12L92.05 6.12L92.05 6.31L92.05 6.31Q92.05 6.45 91.97 6.54L91.97 6.54L91.97 6.54Q91.88 6.62 91.74 6.62L91.74 6.62L90.01 6.62L90.01 10.70L90.01 10.70Q90.01 11.48 90.27 11.88L90.27 11.88L90.27 11.88Q90.52 12.28 91.13 12.28L91.13 12.28L91.88 12.28L91.88 12.28Q92.02 12.28 92.11 12.36L92.11 12.36L92.11 12.36Q92.19 12.45 92.19 12.59L92.19 12.59L92.19 12.78L92.19 12.78Q92.19 12.92 92.11 13.01L92.11 13.01L92.11 13.01Q92.02 13.09 91.88 13.09L91.88 13.09L91.06 13.09Z"></path></g><!----><!----></svg>